<mxfile host="app.diagrams.net" modified="2023-07-07T07:24:06.883Z" agent="Mozilla/5.0 (Windows NT 10.0; Win64; x64) AppleWebKit/537.36 (KHTML, like Gecko) Chrome/114.0.0.0 Safari/537.36" etag="wptyRhFY89pjzo3WGlSX" version="21.5.2" type="github">
  <diagram name="第 1 页" id="8xISH4OoHk16N2n0mDrF">
    <mxGraphModel dx="1347" dy="725" grid="1" gridSize="10" guides="1" tooltips="1" connect="1" arrows="1" fold="1" page="1" pageScale="1" pageWidth="827" pageHeight="1169" math="0" shadow="0">
      <root>
        <mxCell id="0" />
        <mxCell id="1" parent="0" />
        <mxCell id="YGEKBtAMTnWdd1QfSGZH-1" value="&lt;h1&gt;11根限位/回零&lt;/h1&gt;&lt;div&gt;x:xlimit+,xlimit-,xHome&lt;/div&gt;&lt;div&gt;y:ylimit+,ylimit-,yHome&lt;br&gt;&lt;/div&gt;&lt;div&gt;w:wlimit+,wlimit-,wHome&lt;br&gt;&lt;/div&gt;&lt;div&gt;r:rlimit,rHome&lt;br&gt;&lt;/div&gt;&lt;div&gt;默认电平都是24V(实际23.3v)&lt;/div&gt;" style="text;html=1;strokeColor=none;fillColor=none;spacing=5;spacingTop=-20;whiteSpace=wrap;overflow=hidden;rounded=0;" vertex="1" parent="1">
          <mxGeometry x="40" y="60" width="190" height="120" as="geometry" />
        </mxCell>
        <mxCell id="YGEKBtAMTnWdd1QfSGZH-14" value="新喷码机部件图" style="swimlane;whiteSpace=wrap;html=1;" vertex="1" parent="1">
          <mxGeometry x="150" y="300" width="570" height="550" as="geometry" />
        </mxCell>
        <mxCell id="YGEKBtAMTnWdd1QfSGZH-2" value="" style="shape=cube;whiteSpace=wrap;html=1;boundedLbl=1;backgroundOutline=1;darkOpacity=0.05;darkOpacity2=0.1;direction=east;flipH=1;" vertex="1" parent="YGEKBtAMTnWdd1QfSGZH-14">
          <mxGeometry x="90" y="170" width="390" height="280" as="geometry" />
        </mxCell>
        <mxCell id="YGEKBtAMTnWdd1QfSGZH-3" value="" style="shape=cube;whiteSpace=wrap;html=1;boundedLbl=1;backgroundOutline=1;darkOpacity=0.05;darkOpacity2=0.1;flipV=0;flipH=1;" vertex="1" parent="YGEKBtAMTnWdd1QfSGZH-14">
          <mxGeometry x="171" y="320" width="170" height="40" as="geometry" />
        </mxCell>
        <mxCell id="YGEKBtAMTnWdd1QfSGZH-10" value="" style="shape=cube;whiteSpace=wrap;html=1;boundedLbl=1;backgroundOutline=1;darkOpacity=0.05;darkOpacity2=0.1;flipH=0;direction=west;flipV=1;rotation=0;size=70;" vertex="1" parent="YGEKBtAMTnWdd1QfSGZH-14">
          <mxGeometry x="295" y="290" width="136" height="95.43" as="geometry" />
        </mxCell>
        <mxCell id="YGEKBtAMTnWdd1QfSGZH-5" value="" style="shape=cylinder3;whiteSpace=wrap;html=1;boundedLbl=1;backgroundOutline=1;size=6.755456891741176;flipV=0;" vertex="1" parent="YGEKBtAMTnWdd1QfSGZH-14">
          <mxGeometry x="231" y="320" width="36" height="55.43" as="geometry" />
        </mxCell>
      </root>
    </mxGraphModel>
  </diagram>
</mxfile>
